REM DIRINDEX 1\2,1\3,1\4
REM DIRNAME folder01,folder02,folder03,folder04
TITLE ""
FILE "DISC3Track34.mp3" MP3
  TRACK 01 AUDIO
    TITLE "0:"
    INDEX 01 00:00:00
  TRACK 02 AUDIO
    TITLE "4:cjc105_5772"
    INDEX 01 00:00:19
  TRACK 03 AUDIO
    TITLE "0:"
    INDEX 01 00:02:43
  TRACK 04 AUDIO
    TITLE "2:cjc105_5773"
    INDEX 01 00:03:14
  TRACK 05 AUDIO
    TITLE "3:cjc105_5774"
    INDEX 01 00:04:46
  TRACK 06 AUDIO
    TITLE "0:"
    INDEX 01 00:05:61
  TRACK 07 AUDIO
    TITLE "2:cjc105_5775"
    INDEX 01 00:06:02
  TRACK 08 AUDIO
    TITLE "3:cjc105_5776"
    INDEX 01 00:07:49
  TRACK 09 AUDIO
    TITLE "0:"
    INDEX 01 00:09:08
  TRACK 10 AUDIO
    TITLE "2:cjc105_5777"
    INDEX 01 00:09:32
  TRACK 11 AUDIO
    TITLE "3:cjc105_5778"
    INDEX 01 00:10:66
  TRACK 12 AUDIO
    TITLE "0:"
    INDEX 01 00:12:16
  TRACK 13 AUDIO
    TITLE "2:cjc105_5779"
    INDEX 01 00:12:40
  TRACK 14 AUDIO
    TITLE "3:cjc105_5780"
    INDEX 01 00:13:61
  TRACK 15 AUDIO
    TITLE "0:"
    INDEX 01 00:14:70
  TRACK 16 AUDIO
    TITLE "2:cjc105_5781"
    INDEX 01 00:15:17
  TRACK 17 AUDIO
    TITLE "3:cjc105_5782"
    INDEX 01 00:16:18
  TRACK 18 AUDIO
    TITLE "0:"
    INDEX 01 00:17:43
  TRACK 19 AUDIO
    TITLE "2:cjc105_5783"
    INDEX 01 00:17:57
  TRACK 20 AUDIO
    TITLE "3:cjc105_5784"
    INDEX 01 00:18:50
  TRACK 21 AUDIO
    TITLE "0:"
    INDEX 01 00:19:58
  TRACK 22 AUDIO
    TITLE "2:cjc105_5785"
    INDEX 01 00:20:04
  TRACK 23 AUDIO
    TITLE "3:cjc105_5786"
    INDEX 01 00:21:37
  TRACK 24 AUDIO
    TITLE "0:"
    INDEX 01 00:23:04
  TRACK 25 AUDIO
    TITLE "2:cjc105_5787"
    INDEX 01 00:23:20
  TRACK 26 AUDIO
    TITLE "3:cjc105_5788"
    INDEX 01 00:24:69
  TRACK 27 AUDIO
    TITLE "0:"
    INDEX 01 00:26:40
  TRACK 28 AUDIO
    TITLE "2:cjc105_5789"
    INDEX 01 00:26:62
  TRACK 29 AUDIO
    TITLE "3:cjc105_5790"
    INDEX 01 00:27:63
  TRACK 30 AUDIO
    TITLE "0:"
    INDEX 01 00:28:64
  TRACK 31 AUDIO
    TITLE "2:cjc105_5791"
    INDEX 01 00:29:09
  TRACK 32 AUDIO
    TITLE "3:cjc105_5792"
    INDEX 01 00:30:16
  TRACK 33 AUDIO
    TITLE "0:"
    INDEX 01 00:31:31
  TRACK 34 AUDIO
    TITLE "2:cjc105_5793"
    INDEX 01 00:31:49
  TRACK 35 AUDIO
    TITLE "3:cjc105_5794"
    INDEX 01 00:33:19
  TRACK 36 AUDIO
    TITLE "0:"
    INDEX 01 00:34:40
  TRACK 37 AUDIO
    TITLE "2:cjc105_5795"
    INDEX 01 00:34:55
  TRACK 38 AUDIO
    TITLE "3:cjc105_5796"
    INDEX 01 00:36:27
  TRACK 39 AUDIO
    TITLE "0:"
    INDEX 01 00:38:04
  TRACK 40 AUDIO
    TITLE "2:cjc105_5797"
    INDEX 01 00:38:30
  TRACK 41 AUDIO
    TITLE "3:cjc105_5798"
    INDEX 01 00:39:54
  TRACK 42 AUDIO
    TITLE "0:"
    INDEX 01 00:40:73
  TRACK 43 AUDIO
    TITLE "2:cjc105_5799"
    INDEX 01 00:41:22
  TRACK 44 AUDIO
    TITLE "3:cjc105_5800"
    INDEX 01 00:42:25
  TRACK 45 AUDIO
    TITLE "0:"
    INDEX 01 00:43:31
  TRACK 46 AUDIO
    TITLE "2:cjc105_5801"
    INDEX 01 00:43:50
  TRACK 47 AUDIO
    TITLE "3:cjc105_5802"
    INDEX 01 00:45:04
  TRACK 48 AUDIO
    TITLE "0:"
    INDEX 01 00:46:25
  TRACK 49 AUDIO
    TITLE "2:cjc105_5803"
    INDEX 01 00:46:47
  TRACK 50 AUDIO
    TITLE "3:cjc105_5804"
    INDEX 01 00:48:22
  TRACK 51 AUDIO
    TITLE "0:"
    INDEX 01 00:49:61
  TRACK 52 AUDIO
    TITLE "2:cjc105_5805"
    INDEX 01 00:50:09
  TRACK 53 AUDIO
    TITLE "3:cjc105_5806"
    INDEX 01 00:51:50
  TRACK 54 AUDIO
    TITLE "0:"
    INDEX 01 00:52:73
  TRACK 55 AUDIO
    TITLE "2:cjc105_5807"
    INDEX 01 00:53:21
  TRACK 56 AUDIO
    TITLE "3:cjc105_5808"
    INDEX 01 00:54:62
  TRACK 57 AUDIO
    TITLE "0:"
    INDEX 01 00:56:22
  TRACK 58 AUDIO
    TITLE "2:cjc105_5809"
    INDEX 01 00:56:41
  TRACK 59 AUDIO
    TITLE "3:cjc105_5810"
    INDEX 01 00:57:43
  TRACK 60 AUDIO
    TITLE "0:"
    INDEX 01 00:58:50
